<svg version="1.2" xmlns="http://www.w3.org/2000/svg" viewBox="0 0 300 300" width="300" height="300">
	<defs>
		<linearGradient id="g1" x2="1" gradientUnits="userSpaceOnUse" gradientTransform="matrix(-19.361,-23.04,52.225,-43.885,109.752,96.59)">
			<stop offset="0" stop-color="#2a6dcb"/>
			<stop offset="1" stop-color="#2898e8"/>
		</linearGradient>
		<linearGradient id="g2" x2="1" gradientUnits="userSpaceOnUse" gradientTransform="matrix(22.2,20.442,-45.503,49.415,142.667,128.94)">
			<stop offset="0" stop-color="#284db4"/>
			<stop offset="1" stop-color="#2c7fd8"/>
		</linearGradient>
	</defs>
	<style>
		.s0 { fill: #3d7bd5 } 
		.s1 { fill: #2a63c5 } 
		.s2 { fill: url(#g1) } 
		.s3 { fill: url(#g2) } 
	</style>
	<g>
		<g id="Clip-Path">
			<g>
				<path class="s0" d="m94.46 125.21c1.05 0.93 1.26 15.39 1.67 18.09 5.81 0.36 12.41 0.81 18.17 1.41-8.49 9.6-22.33 17.67-20.8 32.36 0.38 3.81 2.72 10.1 5.67 12.73 12.07 10.74 29.28 13.4 41.79 23.7 10.75 8.85 15.9 17.77 17.34 31.55 2.86 27.21-19.94 46.53-45.33 48.27-5.02 0.35-10.14-0.09-15.13 0.38-0.81 0.1-1.59 0.11-2.4 0.07-5.15-0.22-10.6 0.23-15.7-0.47 3.77-1.01 7.88-1.11 11.8-1.79 10.58-1.82 21.02-6.11 29.04-13.38 6.7-6.07 10.88-14.08 11.25-23.19 0.56-28.66-38.7-29.06-53.85-46.15-9.32-10.52-13.62-21.28-13.06-35.24 0.84-21.19 14.9-34.9 29.54-48.34z"/>
				<path class="s1" d="m185.79 14.3c7.63-4.11 38.53-14.1 46.48-10.55 0.99 1.69 0.8 2.78 0.76 4.68 0.16 6.6-1.7 14.11-3.14 20.56-0.75 3.37-1.81 7.52-2.87 10.78-1.29 3.93-3.07 7.84-4.28 11.86-5.51-5.49-11.07-10.92-16.44-16.54-0.81-0.85-1.69-1.82-2.58-2.57-1.14-0.94-3.63-3.84-4.92-5.15z"/>
				<path class="s0" d="m185.79 14.3c7.63-4.11 38.53-14.1 46.48-10.55 0.99 1.69 0.8 2.78 0.76 4.68-0.17-1.08-0.84-2.71-1.35-3.7-3.32 2.74-27.07 25.92-27.96 27.79-1.14-0.94-3.63-3.84-4.92-5.15z"/>
				<path class="s2" d="m120.1 62.61c2.1-0.13 4.8-0.13 6.91-0.1-8.19 12.39-16.39 25.2-22.12 38.93-9.12-1.7-17.46-1.87-26.41 0.67-0.81 0.23-1.73 0.42-2.57 0.62-2.03 0.44-3.5 0.76-5.6 0.83q-0.19-0.14-0.37-0.29c-0.49-0.41-1.04-0.85-1.07-1.54-0.12-4.07 12.35-19.02 15.22-22.2 10.87-12.06 19.78-16.07 36.01-16.92z"/>
				<path class="s3" d="m174.64 111.45c0.18 0.04 0.08-0.01 0.24 0.24 0.3 8.02 0.28 15.53-1.93 23.29-2.95 11.01-11.25 18.87-19.49 26.18-2.45 2.18-12.42 10.92-15.69 9.92-0.46-0.4-0.32-0.25-0.52-0.92-0.09-4.66 0.89-7.74 1.36-12.14 0.92-8.5 1.16-15.78-1.11-24.04 6.22-1.93 12.33-5.76 17.8-9.27q9.81-6.43 19.34-13.26z"/>
				<path class="s0" d="m114.89 115.71c1.5-1.92 3.61-4.3 5.23-6.18 8.21-9.47 17.23-19.24 28.85-24.51 1.11-0.5 3.5-1.6 4.63-1.68l0.22 0.2c0.29 0.92 0.25 2.02 0.12 2.97-1.47 10.48-22.58 30.57-31.13 37-1.34 0.93-7.68 6.1-8.45 7.21-0.49 0.02-3.38 2.08-4.16 2.48-10.38 5.35-4.29-4.63-1.55-8.52l-0.24-0.21c-6.66-6.07-11.65-11.99-4.05-20.09 3.25 4.14 7.07 7.48 10.53 11.33z"/>
				<path class="s0" d="m176.88 42.4c8.48-0.97 16.14 5.15 17.07 13.63 0.93 8.49-5.21 16.12-13.7 17.01-8.44 0.9-16.01-5.2-16.94-13.64-0.93-8.43 5.14-16.03 13.57-17z"/>
				<path class="s1" d="m114.36 130.72c0.77-1.11 7.11-6.28 8.45-7.21 3.94 3.65 7.66 7.16 11.76 10.65-1.22 2.08-2.1 2.76-4.18 3.84-7.41 3.84-11.31-2.79-16.03-7.28z"/>
			</g>
		</g>
	</g>
</svg>